<?xml version="1.0" encoding="UTF-8"?>
<svg viewBox="0 0 503.607 503.607" xmlns="http://www.w3.org/2000/svg">
    <path d="M385.098,57.754h-41.967v-8.393c0-9.233-7.554-16.787-16.787-16.787h-25.18V24.18c0-14.269-10.911-25.18-25.18-25.18 h-50.361c-14.269,0-25.18,11.751-25.18,25.18v8.393h-25.18c-9.233,0-16.787,7.554-16.787,16.787v8.393h-41.967 c-23.502,0-41.967,18.466-41.967,41.967v360.918c0,23.502,18.466,41.967,41.967,41.967h268.59 c23.502,0,41.967-18.466,41.967-41.967V99.721C427.066,76.22,408.6,57.754,385.098,57.754z M175.262,49.361h33.574 c5.036,0,8.393-3.357,8.393-8.393V24.18c0-5.036,3.357-8.393,8.393-8.393h50.361c5.036,0,8.393,4.197,8.393,8.393v16.787 c0,5.036,3.357,8.393,8.393,8.393h33.574v16.787v41.967H175.262V66.148V49.361z M410.279,460.639 c0,14.269-10.911,25.18-25.18,25.18h-268.59c-14.269,0-25.18-10.911-25.18-25.18V99.721c0-14.269,10.911-25.18,25.18-25.18 h41.967v33.574c0,9.233,7.554,16.787,16.787,16.787h151.082c9.233,0,16.787-7.554,16.787-16.787V74.541h41.967 c14.269,0,25.18,10.911,25.18,25.18V460.639z"/>
    <path d="M250.803,192.049c-60.433,0-109.115,48.682-109.115,109.115s48.682,109.115,109.115,109.115 s109.115-48.682,109.115-109.115S311.236,192.049,250.803,192.049z M250.803,393.492c-51.2,0-92.328-41.128-92.328-92.328 c0-51.2,41.128-92.328,92.328-92.328s92.328,41.128,92.328,92.328C343.131,352.364,302.003,393.492,250.803,393.492z"/>
    <path d="M296.967,252.482c-4.197-2.518-9.233-1.679-11.751,2.518l-44.485,74.702l-26.02-26.02c-3.357-3.357-8.393-3.357-11.751,0 c-3.357,3.357-3.357,8.393,0,11.751l33.574,33.574c1.679,1.679,3.357,2.518,5.875,2.518c0,0,0.839,0,0.839,0.839 c2.518-0.839,4.197-1.679,5.875-4.197l50.361-83.934C302.003,260.036,301.164,255,296.967,252.482z"/>
</svg>
