<?xml version="1.0" encoding="UTF-8"?>
<svg viewBox="0 0 503.607 503.607" xmlns="http://www.w3.org/2000/svg">
    <path d="M385.098,57.754h-41.967v-8.393c0-9.233-7.554-16.787-16.787-16.787h-25.18V24.18c0-14.269-10.911-25.18-25.18-25.18 h-50.361c-14.269,0-25.18,11.751-25.18,25.18v8.393h-25.18c-9.233,0-16.787,7.554-16.787,16.787v8.393h-41.967 c-23.502,0-41.967,18.466-41.967,41.967v360.918c0,23.502,18.466,41.967,41.967,41.967h268.59 c23.502,0,41.967-18.466,41.967-41.967V99.721C427.066,76.22,408.6,57.754,385.098,57.754z M175.262,49.361h33.574 c5.036,0,8.393-3.357,8.393-8.393V24.18c0-5.036,3.357-8.393,8.393-8.393h50.361c5.036,0,8.393,4.197,8.393,8.393v16.787 c0,5.036,3.357,8.393,8.393,8.393h33.574v16.787v41.967H175.262V66.148V49.361z M410.279,460.639 c0,14.269-10.911,25.18-25.18,25.18h-268.59c-14.269,0-25.18-10.911-25.18-25.18V99.721c0-14.269,10.911-25.18,25.18-25.18 h41.967v33.574c0,9.233,7.554,16.787,16.787,16.787h151.082c9.233,0,16.787-7.554,16.787-16.787V74.541h41.967 c14.269,0,25.18,10.911,25.18,25.18V460.639z"/>
    <path d="M329.702,225.623c-0.116-0.116-0.238-0.217-0.357-0.325c-19.819-20.517-47.642-33.249-78.541-33.249 c-60.433,0-109.115,48.682-109.115,109.115c0,30.9,12.732,58.723,33.249,78.542c0.107,0.119,0.209,0.241,0.325,0.357 c0.293,0.293,0.588,0.551,0.885,0.793c19.493,18.262,45.725,29.424,74.656,29.424c60.433,0,109.115-48.682,109.115-109.115 c0-28.999-11.214-55.288-29.553-74.795C330.159,226.113,329.941,225.863,329.702,225.623z M250.803,208.836 c23.452,0,44.787,8.633,61.028,22.906L181.382,362.192c-14.273-16.241-22.906-37.576-22.906-61.028 C158.475,249.964,199.603,208.836,250.803,208.836z M250.803,393.492c-21.729,0-41.641-7.41-57.368-19.851L323.28,243.796 c12.441,15.727,19.851,35.639,19.851,57.368C343.131,352.364,302.003,393.492,250.803,393.492z"/>
</svg>
